<svg xmlns="http://www.w3.org/2000/svg" width="256" height="256"><path fill-opacity=".016" d="M0 128.004v128.004l128.25-.254 128.25-.254.254-127.75L257.008 0H0v128.004m.485.496c0 70.4.119 99.053.265 63.672.146-35.38.146-92.98 0-128C.604 29.153.485 58.1.485 128.5" fill="#1976D2" fill-rule="evenodd"/><path fill-opacity=".267" d="M105.555 1.614C73.839 7.339 45.146 25.066 25.618 51 13.218 67.468 5 86.496 1.433 107c-2.223 12.779-1.509 37.927 1.406 49.5 4.918 19.53 12.777 35.783 24.658 51C45.27 230.261 69.491 245.564 100 253.307c7.271 1.846 11.319 2.158 28 2.158 16.681 0 20.729-.312 28-2.158 45.615-11.577 79.296-42.015 93.429-84.434 1.901-5.705 3.973-13.523 4.603-17.373.631-3.85 1.557-7.781 2.058-8.736 1.065-2.032 1.253-31.441.194-30.381-.394.393-1.305-2.769-2.024-7.029-4.22-24.986-16.844-48.941-35.759-67.855-19.21-19.211-42.485-31.359-68.882-35.953-11.044-1.923-33.229-1.888-44.064.068m6.28 22.929C78.414 29.75 49.248 51.217 34.453 81.5c-6.34 12.978-8.966 21.96-10.559 36.117-2.173 19.314 1.272 37.872 10.559 56.883 10.17 20.816 26.231 36.877 47.047 47.047 12.978 6.34 21.96 8.966 36.117 10.559 11.971 1.347 26.239.17 38.516-3.177 11.495-3.134 28.188-11.798 37.826-19.633 11.592-9.424 20.972-21.254 27.588-34.796 9.324-19.086 12.821-37.827 10.609-56.856-1.652-14.211-4.299-23.228-10.612-36.144-15.051-30.794-43.952-51.842-78.292-57.018-11.689-1.762-19.813-1.746-31.417.061M92.491 43.809C72.261 53.282 78.483 83 100.697 83c8.437 0 14.812-4.039 18.793-11.906 2.702-5.341 1.741-14.887-2.036-20.234-5.472-7.747-16.703-10.919-24.963-7.051m28.021 32.404c-1.093.634-2.668 1.976-3.5 2.983-.831 1.007-3.743 3.287-6.47 5.067-4.408 2.878-5.709 4.662-11.742 16.095-7.277 13.789-12.263 21.319-13.158 19.871-.306-.494-1.02-7.449-1.589-15.457-.569-8.008-1.325-15.317-1.68-16.242-1.071-2.79-5.261-3.833-8.053-2.004-4.074 2.67-4.611 5.734-3.361 19.208 3.151 33.965 6.123 42.505 14.176 40.736 3.767-.827 12.062-10.582 23.125-27.194 7.864-11.808 8.205-12.165 10.044-10.501 2.998 2.713 6.212 8.786 11.643 21.999 6.163 14.991 10.617 24.014 13.298 26.935l2.027 2.209-19.386 20.132c-10.662 11.073-19.959 21.208-20.659 22.524-1.612 3.029-.733 6.602 2.331 9.48 2.381 2.237 2.493 2.244 34.165 2.061 31.262-.18 37.086-.506 40.492-2.263 2.538-1.309 4.188-7.701 2.874-11.134l-1.064-2.783-26.013.283c-14.308.155-26.007.057-26-.218.016-.603 9.079-6.632 21.98-14.621 15.737-9.746 21.636-17.845 18.973-26.047-1.993-6.136-10.827-23.165-24.293-46.832-17.572-30.88-18.67-32.555-22.39-34.134-3.785-1.607-3.285-1.594-5.77-.153M.402 128c0 8.525.154 12.012.341 7.75.188-4.262.188-11.237 0-15.5-.187-4.263-.341-.775-.341 7.75" fill="#1976D2" fill-rule="evenodd"/><path fill-opacity=".32" d="M108 1.452C95.97 3.426 81.133 8.379 69.625 14.264 34.93 32.006 10.935 63.734 2.34 103.232-.198 114.895-.173 141.213 2.387 153 13.571 204.493 51.507 242.429 103 253.613c11.787 2.56 38.105 2.585 49.768.047 39.498-8.595 71.226-32.59 88.968-67.285 5.94-11.617 10.899-26.523 12.383-37.229.583-4.205 1.47-8.427 1.971-9.382 1.276-2.435 1.192-25.056-.09-24.264-.585.361-1-.67-1-2.483 0-9.557-5.982-29.116-13.272-43.392-17.582-34.434-49.386-58.653-88.228-67.186-9.93-2.182-34.915-2.724-45.5-.987m1.655 23.079c-40.93 7.74-72.611 37.116-83.421 77.35-2.286 8.509-2.584 11.523-2.584 26.119s.298 17.61 2.584 26.119c9.999 37.216 38.342 65.646 75.337 75.569 8.856 2.375 11.712 2.662 26.429 2.662 14.596 0 17.61-.298 26.119-2.584 37.216-9.999 65.646-38.342 75.569-75.337 2.375-8.856 2.662-11.712 2.662-26.429 0-14.596-.298-17.61-2.584-26.119-8.353-31.09-29.415-56.146-58.487-69.578-17.357-8.02-43.129-11.27-61.624-7.772M96.5 42.938c-6.702 1.626-10.924 4.87-13.746 10.562-6.847 13.815 3.166 29.558 18.746 29.472 9.526-.052 19.489-10.517 19.489-20.472 0-12.145-12.827-22.391-24.489-19.562m21.241 36.187c-1.783 1.719-4.88 4.169-6.884 5.445-4.469 2.846-6.414 5.541-11.856 16.43-4.385 8.774-12.016 20.965-13.137 20.987-.899.018-1.715-6.63-2.454-19.987-.724-13.091-1.883-16-6.376-16-6.576 0-7.439 7.073-4.054 33.212 2.135 16.486 3.091 20.721 5.508 24.411 1.964 2.996 6.271 3.141 9.844.331 4.21-3.312 15.34-17.694 21.869-28.257l6.058-9.802 2.277 2.139c3.042 2.858 7.411 11.237 12.396 23.776 4.852 12.202 9.404 21.511 12.604 25.775l2.315 3.086-17.53 17.414c-9.641 9.578-18.832 19.17-20.425 21.315-3.586 4.829-3.732 8.855-.441 12.145l2.454 2.455 28.296-.062c35.194-.077 42.367-.691 44.924-3.849 2.081-2.57 2.558-9.547.729-10.677-.627-.388-12.89-.654-27.25-.592l-26.108.113 3.178-2.717c1.748-1.494 8.869-6.261 15.824-10.593 15.322-9.544 17.792-11.562 21.142-17.279 2.091-3.568 2.495-5.275 2.047-8.645-.691-5.186-10.514-24.951-23.035-46.35-5.198-8.882-11.349-19.799-13.67-24.258-6.799-13.07-12.051-15.939-18.245-9.966M.385 128c0 6.875.16 9.688.355 6.25.196-3.437.196-9.062 0-12.5-.195-3.437-.355-.625-.355 6.25" fill="#1976D2" fill-rule="evenodd"/><path fill-opacity=".784" d="M113.5 1.159C70.656 5.967 32.875 32.653 13.526 71.773 4.794 89.427.648 107.529.648 128c0 34.641 12.817 65.606 37.281 90.071 34.076 34.075 82.903 45.87 129.445 31.269 34.682-10.881 65.158-39.047 78.617-72.658 4.26-10.639 7.895-24.909 8.652-33.963.357-4.28 1.034-8.019 1.503-8.309.47-.291.854-3.678.854-7.528 0-3.85-.386-6.761-.859-6.469-.472.291-1.149-2.944-1.503-7.191-1.217-14.561-7.958-35.274-15.856-48.722-16.193-27.569-41.164-47.979-70.231-57.402-19.778-6.411-35.617-8.12-55.051-5.939m-7.595 23.738c-40.68 8.852-72.68 41.198-81.105 81.984-2.629 12.725-2.126 35.573 1.042 47.382 9.969 37.157 38.567 65.664 76.158 75.918 7.48 2.041 10.66 2.311 26.5 2.254 15.201-.055 19.207-.399 25.763-2.212 37.383-10.342 65.572-38.528 75.968-75.96 1.851-6.663 2.156-10.384 2.156-26.263 0-15.821-.309-19.611-2.133-26.175-10.476-37.684-38.784-65.967-76.079-76.012-11.226-3.024-36.387-3.501-48.27-.916M.336 128c0 4.125.177 5.813.392 3.75.216-2.062.216-5.437 0-7.5-.215-2.062-.392-.375-.392 3.75" fill="#1976D2" fill-rule="evenodd"/></svg>