<?xml version="1.0" encoding="UTF-8" standalone="no"?>
<svg
   xmlns:dc="http://purl.org/dc/elements/1.1/"
   xmlns:cc="http://creativecommons.org/ns#"
   xmlns:rdf="http://www.w3.org/1999/02/22-rdf-syntax-ns#"
   xmlns:svg="http://www.w3.org/2000/svg"
   xmlns="http://www.w3.org/2000/svg"
   xmlns:sodipodi="http://sodipodi.sourceforge.net/DTD/sodipodi-0.dtd"
   xmlns:inkscape="http://www.inkscape.org/namespaces/inkscape"
   width="210mm"
   height="297mm"
   viewBox="0 0 210 297"
   version="1.1"
   id="svg8"
   inkscape:version="1.0.1 (3bc2e813f5, 2020-09-07)"
   sodipodi:docname="icona2.svg"
   inkscape:export-filename="C:\Users\1340\projectes\quasar\pregaries\src\assets\icona2.png"
   inkscape:export-xdpi="176.68709"
   inkscape:export-ydpi="176.68709">
  <defs
     id="defs2">
    <clipPath
       clipPathUnits="userSpaceOnUse"
       id="clipPath985">
      <path
         id="path987"
         style="fill:none;fill-opacity:0.976471;stroke:#000000;stroke-width:1.06179;stroke-linecap:round;stroke-linejoin:round;paint-order:markers fill stroke"
         d="M 30.085411,82.769464 H 192.30386 c 1.81772,0 3.28107,1.463355 3.28107,3.281069 V 226.69551 c 0,1.81772 -1.46335,3.28108 -3.28107,3.28108 H 30.085411 c -1.817714,0 -3.281071,-1.46336 -3.281071,-3.28108 V 86.050533 c 0,-1.817714 1.463357,-3.281069 3.281071,-3.281069 z" />
    </clipPath>
  </defs>
  <sodipodi:namedview
     id="base"
     pagecolor="#ffffff"
     bordercolor="#666666"
     borderopacity="1.0"
     inkscape:pageopacity="0.0"
     inkscape:pageshadow="2"
     inkscape:zoom="0.35"
     inkscape:cx="400"
     inkscape:cy="560"
     inkscape:document-units="mm"
     inkscape:current-layer="layer1"
     inkscape:document-rotation="0"
     showgrid="false"
     inkscape:window-width="1815"
     inkscape:window-height="1020"
     inkscape:window-x="54"
     inkscape:window-y="0"
     inkscape:window-maximized="0" />
  <metadata
     id="metadata5">
    <rdf:RDF>
      <cc:Work
         rdf:about="">
        <dc:format>image/svg+xml</dc:format>
        <dc:type
           rdf:resource="http://purl.org/dc/dcmitype/StillImage" />
        <dc:title></dc:title>
      </cc:Work>
    </rdf:RDF>
  </metadata>
  <g
     inkscape:label="Layer 1"
     inkscape:groupmode="layer"
     id="layer1">
    <g
       id="g969"
       clip-path="url(#clipPath985)">
      <g
         id="g998"
         transform="matrix(0.99307267,0,0,0.45585849,-212.62803,93.03169)"
         style="opacity:1"
         inkscape:export-xdpi="96"
         inkscape:export-ydpi="96">
        <rect
           style="opacity:0.34;fill:#ffccaa;fill-opacity:0.976471;stroke:#000000;stroke-width:1.265;stroke-linecap:round;stroke-linejoin:round;stroke-miterlimit:4;stroke-dasharray:none;paint-order:markers fill stroke"
           id="rect885"
           width="182.2778"
           height="35.814117"
           x="228.78271"
           y="-21.9161"
           rx="3.3039591"
           ry="7.1975656" />
        <rect
           style="opacity:1;fill:#ffcc00;fill-opacity:0.976471;stroke:none;stroke-width:1.265;stroke-linecap:round;stroke-linejoin:round;stroke-miterlimit:4;stroke-dasharray:none;paint-order:markers fill stroke"
           id="rect887"
           width="182.2778"
           height="35.814117"
           x="228.78271"
           y="-21.9161"
           rx="3.3039591"
           ry="7.1975656" />
        <rect
           style="opacity:1;fill:#ff0000;fill-opacity:0.976471;stroke:none;stroke-width:1.265;stroke-linecap:round;stroke-linejoin:round;stroke-miterlimit:4;stroke-dasharray:none;paint-order:markers fill stroke"
           id="rect891"
           width="182.2778"
           height="35.814117"
           x="228.78271"
           y="13.898021"
           rx="3.3039591"
           ry="7.1975656" />
        <rect
           style="opacity:0.34;fill:#ffccaa;fill-opacity:0.976471;stroke:#000000;stroke-width:1.265;stroke-linecap:round;stroke-linejoin:round;stroke-miterlimit:4;stroke-dasharray:none;paint-order:markers fill stroke"
           id="rect965"
           width="182.2778"
           height="35.814117"
           x="228.78271"
           y="49.712139"
           rx="3.3039591"
           ry="7.1975656" />
        <rect
           style="opacity:1;fill:#ffcc00;fill-opacity:0.976471;stroke:none;stroke-width:1.265;stroke-linecap:round;stroke-linejoin:round;stroke-miterlimit:4;stroke-dasharray:none;paint-order:markers fill stroke"
           id="rect967"
           width="182.2778"
           height="35.814117"
           x="228.78271"
           y="49.712139"
           rx="3.3039591"
           ry="7.1975656" />
        <rect
           style="opacity:1;fill:#ff0000;fill-opacity:0.976471;stroke:none;stroke-width:1.265;stroke-linecap:round;stroke-linejoin:round;stroke-miterlimit:4;stroke-dasharray:none;paint-order:markers fill stroke"
           id="rect969"
           width="182.2778"
           height="35.814117"
           x="228.78271"
           y="85.526253"
           rx="3.3039591"
           ry="7.1975656" />
        <rect
           style="opacity:0.34;fill:#ffccaa;fill-opacity:0.976471;stroke:#000000;stroke-width:1.265;stroke-linecap:round;stroke-linejoin:round;stroke-miterlimit:4;stroke-dasharray:none;paint-order:markers fill stroke"
           id="rect971"
           width="182.2778"
           height="35.814117"
           x="228.78271"
           y="121.34037"
           rx="3.3039591"
           ry="7.1975656" />
        <rect
           style="opacity:1;fill:#ffcc00;fill-opacity:0.976471;stroke:none;stroke-width:1.265;stroke-linecap:round;stroke-linejoin:round;stroke-miterlimit:4;stroke-dasharray:none;paint-order:markers fill stroke"
           id="rect973"
           width="182.2778"
           height="35.814117"
           x="228.78271"
           y="121.34037"
           rx="3.3039591"
           ry="7.1975656" />
        <rect
           style="opacity:1;fill:#ff0000;fill-opacity:0.976471;stroke:none;stroke-width:1.265;stroke-linecap:round;stroke-linejoin:round;stroke-miterlimit:4;stroke-dasharray:none;paint-order:markers fill stroke"
           id="rect975"
           width="182.2778"
           height="35.814117"
           x="228.78271"
           y="157.1545"
           rx="3.3039591"
           ry="7.1975656" />
        <rect
           style="opacity:0.34;fill:#ffccaa;fill-opacity:0.976471;stroke:#000000;stroke-width:1.265;stroke-linecap:round;stroke-linejoin:round;stroke-miterlimit:4;stroke-dasharray:none;paint-order:markers fill stroke"
           id="rect977"
           width="182.2778"
           height="35.814117"
           x="228.78271"
           y="192.96861"
           rx="3.3039591"
           ry="7.1975656" />
        <rect
           style="opacity:1;fill:#ffcc00;fill-opacity:0.976471;stroke:none;stroke-width:1.265;stroke-linecap:round;stroke-linejoin:round;stroke-miterlimit:4;stroke-dasharray:none;paint-order:markers fill stroke"
           id="rect979"
           width="182.2778"
           height="35.814117"
           x="228.78271"
           y="192.96861"
           rx="3.3039591"
           ry="7.1975656" />
        <rect
           style="opacity:1;fill:#ff0000;fill-opacity:0.976471;stroke:none;stroke-width:1.265;stroke-linecap:round;stroke-linejoin:round;stroke-miterlimit:4;stroke-dasharray:none;paint-order:markers fill stroke"
           id="rect981"
           width="182.2778"
           height="35.814117"
           x="228.78271"
           y="228.78273"
           rx="3.3039591"
           ry="7.1975656" />
        <rect
           style="opacity:1;fill:#ffcc00;fill-opacity:0.976471;stroke:none;stroke-width:1.265;stroke-linecap:round;stroke-linejoin:round;stroke-miterlimit:4;stroke-dasharray:none;paint-order:markers fill stroke"
           id="rect983"
           width="182.2778"
           height="35.814117"
           x="228.78271"
           y="264.59686"
           rx="3.3039591"
           ry="7.1975656" />
      </g>
      <g
         id="g1007"
         transform="translate(21.154761,45.126604)"
         style="opacity:1"
         inkscape:export-xdpi="96"
         inkscape:export-ydpi="96">
        <path
           style="display:inline;fill:#ffccaa;stroke:#000000;stroke-width:1.265;stroke-linecap:butt;stroke-linejoin:miter;stroke-miterlimit:4;stroke-dasharray:none;stroke-opacity:1"
           d="m 72.193451,184.45238 c 0,0 -8.693452,-6.23661 -12.284226,-10.58333 -3.590774,-4.34673 -6.047618,-11.71727 -7.559524,-14.17411 -1.511903,-2.45685 -4.535712,-4.91369 -5.291667,-7.37054 -0.755951,-2.45684 -0.94494,-5.85863 -3.590774,-11.33928 C 40.821427,135.50446 23.8125,103.1875 23.8125,103.1875 c 0,0 -2.163669,-4.96595 -1.228225,-7.104106 0.935443,-2.138156 2.338608,-2.605879 2.338608,-2.605879 0,0 0,-3.140416 1.536799,-4.677216 1.536801,-1.536798 3.407688,-1.670434 3.407688,-1.670434 L 20.512936,70.625972 c 0,0 -1.202713,-2.672697 0.868626,-4.944486 2.071339,-2.271792 3.340869,-2.004523 3.340869,-2.004523 0,0 -0.400904,-2.939963 0.601357,-4.142676 1.00226,-1.202714 2.27179,-1.80407 2.27179,-1.80407 0,0 -0.601355,-1.937705 0,-2.939965 0.601356,-1.00226 2.539061,-2.271789 2.539061,-2.271789 0,0 -2.138156,-4.34313 1.536801,-7.750818 3.674953,-3.407685 7.617179,-1.670434 8.819893,-0.734991 1.202714,0.935445 5.679477,6.481286 5.679477,6.481286 0,0 0.53454,-2.472243 2.271792,-3.207234 1.737251,-0.734992 6.147199,-1.670434 8.151719,0.53454 2.004523,2.204971 7.283654,7.532264 10.685439,11.123038 3.401787,3.590774 8.315478,7.181548 12.473215,12.473215 4.157739,5.291667 10.985029,13.186714 10.985029,13.186714 0,0 0.734991,-2.605878 1.77066,-3.140416 1.035669,-0.53454 2.706103,-0.7684 3.173825,-0.434314 0.467723,0.334087 2.80633,3.006784 3.441097,3.240643 0.634765,0.23386 1.737254,1.03567 2.071334,1.57021 0.33409,0.534538 0.83522,1.302938 0.83522,1.302938 0,0 0.43431,-0.167045 1.26953,0 0.83522,0.167042 8.28536,4.109267 8.95353,4.911077 0.66817,0.801809 14.56619,22.450639 14.56619,22.450639 0,0 1.87089,1.06908 2.40543,4.94449 0.53453,3.87541 0.66817,16.30344 1.87088,18.97613 1.20271,2.6727 2.00452,10.95805 6.94901,15.76891 4.94449,4.81085 13.49711,14.56618 15.63527,18.57523 2.13815,4.00904 8.68626,11.62622 8.68626,11.62622 z"
           id="path28" />
        <path
           style="fill:#ffccaa;stroke:#000000;stroke-width:1.265;stroke-linecap:butt;stroke-linejoin:miter;stroke-miterlimit:4;stroke-dasharray:none;stroke-opacity:1"
           d="m 81.38357,184.41597 c 0,0 -14.03165,-17.23888 -19.377041,-23.92062 -5.34539,-6.68174 -6.815372,-15.10073 -8.151719,-18.04069 -1.336347,-2.93997 -11.626226,-15.50164 -15.100729,-21.9161 -3.474503,-6.41447 -3.741774,-8.01809 -6.147199,-11.8935 -2.405425,-3.87541 -7.683999,-15.167547 -7.683999,-15.167547 0,0 0.03805,-6.294049 4.944487,-6.347648 4.906439,-0.0536 9.772883,7.458675 9.772883,7.458675 0,0 3.827007,6.47284 5.858631,8.92969 2.031622,2.45684 16.583705,16.77269 18.190104,18.94605 1.606397,2.17337 2.315105,12.33148 2.315105,12.33148"
           id="path38" />
        <path
           style="fill:#ffccaa;stroke:#000000;stroke-width:1.265;stroke-linecap:butt;stroke-linejoin:miter;stroke-miterlimit:4;stroke-dasharray:none;stroke-opacity:1"
           d="m 51.917105,110.14845 c 0,0 -4.944486,-6.34765 -7.182869,-9.85556 -2.238383,-3.507914 -5.14123,-6.838277 -8.448521,-13.263874 -3.307292,-6.425594 -11.563284,-23.352053 -11.563284,-23.352053 0,0 -0.997793,-4.062513 2.873147,-5.946746 3.870939,-1.884235 6.280537,-1.222777 6.682137,-1.010166 0.4016,0.212612 1.903898,2.413332 2.739114,3.849906 0.835218,1.436574 0.535465,0.273729 3.521118,4.252959 3.024902,4.03154 3.590772,6.709076 6.520087,10.205357 2.929316,3.496278 4.063246,5.291667 6.898066,9.071428 2.834823,3.779763 2.304135,2.963346 4.70956,5.235138 2.405427,2.271792 10.811089,13.262071 11.992263,15.175581 1.181177,1.9135 2.95294,9.75651 2.95294,9.75651"
           id="path40"
           sodipodi:nodetypes="csscssssssssc" />
        <path
           style="fill:#ffccaa;stroke:#000000;stroke-width:1.265;stroke-linecap:butt;stroke-linejoin:miter;stroke-miterlimit:4;stroke-dasharray:none;stroke-opacity:1"
           d="m 76.918155,111.88095 c 0,0 -3.543528,-2.64583 -4.228611,-3.73251 -0.68508,-1.08668 -2.244232,-3.99238 -2.244232,-3.99238"
           id="path42" />
        <path
           style="fill:#ffccaa;stroke:#000000;stroke-width:1.265;stroke-linecap:butt;stroke-linejoin:miter;stroke-miterlimit:4;stroke-dasharray:none;stroke-opacity:1"
           d="m 32.656994,56.410574 c 0,0 -2.238383,-3.240641 -2.522355,-3.892111 -0.283975,-0.651471 -0.283975,-0.634767 -0.283975,-0.634767"
           id="path44" />
        <path
           style="fill:#ffccaa;stroke:#000000;stroke-width:1.265;stroke-linecap:butt;stroke-linejoin:miter;stroke-miterlimit:4;stroke-dasharray:none;stroke-opacity:1"
           d="m 46.17081,50.51394 c 0,0 3.207234,2.739511 4.142679,4.409948 0.935442,1.670433 0.400904,2.472243 2.472243,4.944485 2.071338,2.472243 10.089425,9.153983 12.49485,12.361217 2.405424,3.207234 2.605878,5.34539 5.946745,8.886711 3.34087,3.541321 1.269532,1.937703 5.946749,8.018084 4.677217,6.080382 11.158503,8.084905 11.158503,8.084905"
           id="path46" />
        <path
           style="fill:#ffccaa;stroke:#000000;stroke-width:1.265;stroke-linecap:butt;stroke-linejoin:miter;stroke-miterlimit:4;stroke-dasharray:none;stroke-opacity:1"
           d="m 90.738004,84.624213 c 0,0 0.734991,2.171565 3.608138,4.376539 2.873148,2.204974 3.407686,2.739512 5.879928,5.078122 2.47225,2.338607 3.34087,4.543581 6.68174,7.216276 3.34087,2.67269 2.47224,3.54132 6.34765,4.94449 3.87541,1.40316 3.87541,1.40316 3.87541,1.40316"
           id="path48" />
      </g>
    </g>
  </g>
</svg>
