<?xml version="1.0" encoding="UTF-8" standalone="no"?>
<svg
   xmlns:dc="http://purl.org/dc/elements/1.1/"
   xmlns:cc="http://creativecommons.org/ns#"
   xmlns:rdf="http://www.w3.org/1999/02/22-rdf-syntax-ns#"
   xmlns:svg="http://www.w3.org/2000/svg"
   xmlns="http://www.w3.org/2000/svg"
   xmlns:sodipodi="http://sodipodi.sourceforge.net/DTD/sodipodi-0.dtd"
   xmlns:inkscape="http://www.inkscape.org/namespaces/inkscape"
   width="1024"
   height="1024"
   viewBox="0 0 270.93332 270.93332"
   version="1.1"
   id="svg8"
   inkscape:version="0.92.5 (2060ec1f9f, 2020-04-08)"
   sodipodi:docname="pregaries.svg"
   inkscape:export-filename="/home/jordi/projectes/quasar/pregaries/public/pregaries.png"
   inkscape:export-xdpi="96"
   inkscape:export-ydpi="96">
  <defs
     id="defs2">
    <rect
       x="-103.56547"
       y="28.348213"
       width="74.461304"
       height="65.767853"
       id="rect892" />
    <rect
       x="-82.020828"
       y="-30.238094"
       width="61.610115"
       height="59.720234"
       id="rect881" />
    <rect
       x="-114.52678"
       y="-29.860119"
       width="69.16964"
       height="18.142857"
       id="rect871" />
    <clipPath
       clipPathUnits="userSpaceOnUse"
       id="clipPath865">
      <path
         id="path867"
         style="fill:none;stroke:#000000;stroke-width:1.07892001"
         d="m 0.69543918,165.45496 c 123.53090082,23.79187 168.42103082,-17.19874 288.45634082,0 v 68.13432 H 0.69543918 Z"
         sodipodi:nodetypes="ccccc"
         inkscape:connector-curvature="0" />
    </clipPath>
  </defs>
  <sodipodi:namedview
     id="base"
     pagecolor="#ffffff"
     bordercolor="#666666"
     borderopacity="1.0"
     inkscape:pageopacity="0"
     inkscape:pageshadow="2"
     inkscape:zoom="0.35"
     inkscape:cx="456.57143"
     inkscape:cy="402.70948"
     inkscape:document-units="px"
     inkscape:current-layer="layer1"
     inkscape:document-rotation="0"
     showgrid="false"
     units="px"
     inkscape:window-width="1366"
     inkscape:window-height="768"
     inkscape:window-x="0"
     inkscape:window-y="0"
     inkscape:window-maximized="0"
     inkscape:pagecheckerboard="false" />
  <metadata
     id="metadata5">
    <rdf:RDF>
      <cc:Work
         rdf:about="">
        <dc:format>image/svg+xml</dc:format>
        <dc:type
           rdf:resource="http://purl.org/dc/dcmitype/StillImage" />
        <dc:title></dc:title>
      </cc:Work>
    </rdf:RDF>
  </metadata>
  <g
     inkscape:label="Layer 1"
     inkscape:groupmode="layer"
     id="layer1"
     transform="translate(0,135.46666)">
    <circle
       style="fill:#ffffff;stroke:#800000;stroke-width:23.46048546;stroke-miterlimit:4;stroke-dasharray:none"
       id="path908"
       cx="135.08525"
       cy="0.38141268"
       r="119.881"
       inkscape:export-xdpi="96"
       inkscape:export-ydpi="96" />
    <g
       id="g906"
       inkscape:label="g906"
       transform="matrix(1.6848497,-0.31594159,0.31594159,1.6848497,-2.1424075,-84.767597)"
       style="fill:#c87137;stroke:none"
       inkscape:export-xdpi="96"
       inkscape:export-ydpi="96">
      <circle
         style="fill:#c87137;stroke:none;stroke-width:0.79200101"
         id="path877"
         cx="60.589581"
         cy="22.036011"
         r="12.284225" />
      <g
         aria-label="N"
         transform="matrix(-1.0843609,0,0,1,-10.566953,56.696425)"
         id="text879"
         style="font-style:normal;font-variant:normal;font-weight:bold;font-stretch:normal;font-size:50.79999924px;line-height:1.25;font-family:'Comic Sans MS';-inkscape-font-specification:'Comic Sans MS Bold';white-space:pre;shape-inside:url(#rect881);fill:#c87137;fill-opacity:1;stroke:none">
        <path
           id="path885"
           style="font-style:normal;font-variant:normal;font-weight:bold;font-stretch:normal;font-size:50.79999924px;font-family:'Comic Sans MS';-inkscape-font-specification:'Comic Sans MS Bold';fill:#c87137;stroke:none"
           d="m -44.356324,6.0300346 c -0.05332,2.1409938 -0.141276,4.6474604 -1.951825,6.2359294 -2.061577,1.441947 -4.739166,0.24276 -6.263156,-1.427454 -7.876694,-7.0810139 -10.649318,-9.88853765 -17.162692,-18.2010234 -3.825163,5.3287724 -4.72959,15.4534601 -6.207556,22.1709684 -1.477966,6.717508 -2.305082,11.136682 -5.222085,14.326108 -2.917003,3.189426 -14.512155,2.958202 -13.979322,0.398849 0.557734,-8.969336 10.07003,-34.3782447 11.847825,-41.215411 1.777795,-6.837166 2.183418,-7.671777 3.557865,-10.270702 0.892915,-2.440677 4.605383,-3.629306 6.359931,-1.411077 2.530296,2.705351 5.889479,2.211807 8.250072,5.057796 5.22521,6.881304 7.379048,11.203839 13.720013,17.085683 -0.02573,-7.416375 -0.695359,-8.280386 -1.337673,-15.675831 -0.389206,-2.232203 -1.078428,-5.738434 1.732603,-6.660615 2.668087,-1.096164 4.479563,1.606715 4.824254,3.911175 1.156434,5.158157 1.300003,12.3198099 1.643333,16.9336831 0.34333,4.6138732 0.241733,6.6009278 0.188413,8.7419215 z"
           sodipodi:nodetypes="zccczzczccccccczz"
           inkscape:connector-curvature="0" />
      </g>
      <g
         aria-label="V"
         transform="rotate(75,-41.857729,178.89906)"
         id="text890"
         style="font-style:normal;font-variant:normal;font-weight:normal;font-stretch:normal;font-size:50.79999924px;line-height:1.25;font-family:'Arial Rounded MT Bold';-inkscape-font-specification:'Arial Rounded MT Bold, ';white-space:pre;shape-inside:url(#rect892);fill:#c87137;fill-opacity:1;stroke:none">
        <path
           id="path896"
           style="font-style:normal;font-variant:normal;font-weight:normal;font-stretch:normal;font-size:50.79999924px;font-family:'Arial Rounded MT Bold';-inkscape-font-specification:'Arial Rounded MT Bold, ';fill:#c87137;stroke:none"
           d="m -85.404016,58.559834 c 3.120384,-9.151941 9.643264,-19.03888 12.868956,-28.151416 1.171309,-2.366594 5.972244,0.130902 7.08287,2.51179 1.100122,1.960801 -0.301312,3.999085 -0.84407,5.892811 -3.260858,8.833509 -11.652522,23.729127 -14.973058,32.540386 -0.835617,2.3489 -3.437126,3.856714 -5.890783,3.337455 -2.403314,-0.36415 -3.872593,-2.647518 -4.482119,-4.821333 -3.440929,-9.407436 -7.422052,-20.297057 -10.7867,-29.729773 -0.64216,-2.337322 3.421426,-15.451074 5.860425,-15.103719 2.58662,0.208463 4.177075,1.749519 6.61877,6.188466 2.441694,4.438946 2.152623,19.078865 4.545709,27.335333 z"
           sodipodi:nodetypes="ccccccccczc"
           inkscape:connector-curvature="0" />
      </g>
    </g>
  </g>
</svg>
